<?xml version="1.0" encoding="UTF-8"?>
<svg xmlns="http://www.w3.org/2000/svg" xmlns:xlink="http://www.w3.org/1999/xlink" width="44px" height="44px" viewBox="0 0 44 44" version="1.1">
<g id="surface1">
<path style=" stroke:none;fill-rule:nonzero;fill:rgb(0%,0%,0%);fill-opacity:1;" d="M 0 21.992188 L 0 43.980469 L 43.980469 43.980469 L 43.980469 0 L 0 0 Z M 9.597656 20.613281 L 9.597656 27.101562 L 7.195312 27.101562 L 7.195312 26.878906 C 7.195312 26.613281 7.1875 26.613281 6.574219 26.84375 C 5.875 27.109375 4.699219 27.054688 3.972656 26.726562 C 2.996094 26.273438 2.160156 25.242188 1.804688 24.0625 C 1.597656 23.367188 1.625 22.203125 1.867188 21.503906 C 2.371094 19.992188 3.519531 18.980469 5.003906 18.730469 C 5.472656 18.648438 5.660156 18.667969 6.230469 18.808594 C 6.585938 18.90625 6.957031 19.015625 7.046875 19.050781 C 7.171875 19.113281 7.195312 19.078125 7.195312 18.828125 C 7.195312 18.3125 6.9375 16.917969 6.71875 16.222656 C 6.449219 15.371094 6.105469 14.785156 5.777344 14.617188 C 5.519531 14.484375 5.4375 14.3125 5.570312 14.191406 C 5.597656 14.152344 6.523438 14.128906 7.613281 14.128906 L 9.597656 14.128906 Z M 24.097656 20.523438 C 24.800781 20.738281 25.324219 21.171875 25.625 21.785156 C 25.910156 22.347656 25.953125 23.058594 25.707031 22.984375 C 25.617188 22.96875 25.269531 22.871094 24.941406 22.78125 C 24.40625 22.640625 24.347656 22.59375 24.390625 22.433594 C 24.601562 21.777344 24.496094 21.457031 23.964844 21.199219 C 23.269531 20.878906 22.382812 21.113281 22.097656 21.699219 C 21.957031 21.992188 21.945312 22.054688 22.070312 22.335938 C 22.257812 22.789062 22.621094 22.976562 23.4375 23.039062 C 24.320312 23.109375 25.128906 23.5 25.527344 24.0625 C 25.847656 24.496094 25.945312 25.261719 25.765625 25.8125 C 25.386719 26.976562 23.636719 27.617188 22.257812 27.089844 C 21.519531 26.816406 20.773438 26.070312 20.578125 25.410156 C 20.4375 24.933594 20.390625 24.523438 20.488281 24.523438 C 20.550781 24.523438 21.945312 24.871094 22.105469 24.921875 C 22.195312 24.957031 22.195312 25.003906 22.117188 25.152344 C 21.8125 25.722656 22.1875 26.40625 22.871094 26.550781 C 23.722656 26.71875 24.433594 26.308594 24.433594 25.632812 C 24.433594 25.03125 23.882812 24.613281 23.074219 24.613281 C 21.066406 24.613281 19.894531 22.578125 21.121094 21.226562 C 21.492188 20.808594 21.761719 20.660156 22.410156 20.488281 C 23.058594 20.3125 23.4375 20.320312 24.097656 20.523438 Z M 16.75 20.660156 C 17.191406 20.816406 17.238281 20.816406 17.238281 20.660156 C 17.238281 20.550781 17.40625 20.523438 18.214844 20.523438 L 19.191406 20.523438 L 19.191406 22.214844 C 19.191406 24.558594 19.496094 25.925781 20.144531 26.539062 C 20.695312 27.074219 20.632812 27.101562 18.871094 27.101562 C 17.386719 27.101562 17.308594 27.089844 17.265625 26.921875 C 17.210938 26.710938 17.246094 26.710938 16.828125 26.886719 C 16.347656 27.089844 15.398438 27.074219 14.890625 26.851562 C 13.613281 26.28125 12.902344 25.046875 12.992188 23.539062 C 13.105469 21.511719 15.035156 20.046875 16.75 20.660156 Z M 28.902344 22.320312 C 28.976562 24.746094 29.195312 25.535156 29.96875 26.160156 C 30.273438 26.398438 30.398438 26.433594 30.972656 26.460938 L 31.632812 26.496094 L 31.632812 20.523438 L 33.496094 20.523438 L 33.496094 27.542969 L 31.632812 27.542969 L 31.632812 27.324219 C 31.632812 27.109375 31.613281 27.101562 31.035156 27.101562 C 30.253906 27.101562 29.367188 26.90625 28.824219 26.621094 C 27.695312 26.035156 27.242188 25.289062 26.96875 23.574219 C 26.734375 22.125 26.414062 21.28125 25.988281 21.003906 C 25.863281 20.925781 25.765625 20.78125 25.765625 20.695312 C 25.765625 20.535156 25.855469 20.523438 27.3125 20.523438 L 28.851562 20.523438 Z M 37.316406 20.667969 C 37.316406 20.765625 37.363281 20.792969 37.46875 20.746094 C 38.285156 20.4375 39.523438 20.472656 40.320312 20.835938 C 40.980469 21.128906 41.324219 21.476562 41.644531 22.167969 C 41.894531 22.703125 41.894531 22.703125 41.921875 24.898438 L 41.949219 27.101562 L 40.355469 27.101562 L 40.3125 24.941406 C 40.269531 22.460938 40.1875 22.070312 39.628906 21.46875 C 39.316406 21.136719 39.246094 21.101562 38.855469 21.101562 C 38.304688 21.101562 37.992188 21.316406 37.710938 21.867188 C 37.40625 22.472656 37.316406 23.226562 37.316406 25.296875 L 37.316406 27.101562 L 35.46875 27.101562 L 35.425781 25.117188 C 35.398438 23.609375 35.355469 23.011719 35.230469 22.570312 C 34.992188 21.679688 34.679688 21.074219 34.378906 20.925781 C 34.234375 20.84375 34.121094 20.730469 34.121094 20.660156 C 34.121094 20.542969 34.367188 20.523438 35.71875 20.523438 C 37.132812 20.523438 37.316406 20.542969 37.316406 20.667969 Z M 11.898438 25.890625 C 12.402344 26.160156 12.5 26.871094 12.09375 27.285156 C 11.398438 27.980469 10.234375 27.234375 10.609375 26.34375 C 10.839844 25.8125 11.375 25.625 11.898438 25.890625 Z M 11.898438 25.890625 "/>
<path style=" stroke:none;fill-rule:nonzero;fill:rgb(0%,0%,0%);fill-opacity:1;" d="M 4.941406 19.539062 C 3.953125 20.1875 3.449219 22.550781 3.902344 24.347656 C 4.328125 26.042969 5.1875 26.789062 6.007812 26.167969 C 7.082031 25.339844 7.492188 22.753906 6.832031 20.890625 C 6.398438 19.636719 5.625 19.085938 4.941406 19.539062 Z M 4.941406 19.539062 "/>
<path style=" stroke:none;fill-rule:nonzero;fill:rgb(0%,0%,0%);fill-opacity:1;" d="M 15.574219 21.171875 C 15.28125 21.332031 15.023438 21.714844 14.8125 22.285156 C 14.535156 23.03125 14.546875 24.621094 14.828125 25.351562 C 15.0625 25.945312 15.46875 26.453125 15.769531 26.53125 C 16.519531 26.71875 17.238281 25.386719 17.238281 23.820312 C 17.238281 21.992188 16.421875 20.703125 15.574219 21.171875 Z M 15.574219 21.171875 "/>
</g>
</svg>
